<svg width="51" height="51" viewBox="0 0 51 51" fill="none" xmlns="http://www.w3.org/2000/svg">
<path d="M26 30C28.7614 30 31 27.7614 31 25C31 22.2386 28.7614 20 26 20C23.2386 20 21 22.2386 21 25C21 27.7614 23.2386 30 26 30Z" fill="white" fill-opacity="0.5"/>
<path d="M43.6142 23.695C41.6298 20.626 39.055 18.019 36.1691 16.1553C32.9763 14.0913 29.4513 13 25.9759 13C22.7869 13 19.6512 13.9113 16.6557 15.7083C13.601 17.5405 10.8335 20.2172 8.42974 23.6635C8.15838 24.053 8.00893 24.5143 8.00039 24.989C7.99184 25.4636 8.12458 25.93 8.38174 26.329C10.3625 29.4288 12.9117 32.0395 15.7527 33.8778C18.9514 35.95 22.3939 37 25.9759 37C29.4791 37 33.0116 35.9178 36.1908 33.871C39.0753 32.0133 41.6448 29.3965 43.6217 26.302C43.87 25.9123 44.0013 25.4595 44 24.9974C43.9987 24.5353 43.8648 24.0833 43.6142 23.695ZM26.0014 32.2C24.5774 32.2 23.1853 31.7777 22.0013 30.9866C20.8173 30.1954 19.8944 29.0709 19.3495 27.7553C18.8045 26.4397 18.662 24.992 18.9398 23.5954C19.2176 22.1987 19.9033 20.9158 20.9102 19.9088C21.9172 18.9019 23.2001 18.2162 24.5967 17.9383C25.9934 17.6605 27.4411 17.8031 28.7567 18.3481C30.0723 18.893 31.1968 19.8159 31.9879 20.9999C32.7791 22.1839 33.2013 23.576 33.2013 25C33.1991 26.9089 32.4399 28.739 31.0901 30.0888C29.7403 31.4385 27.9102 32.1978 26.0014 32.2Z" fill="white" fill-opacity="0.5"/>
</svg>
