<svg width="34" height="30" viewBox="0 0 34 30" fill="none" xmlns="http://www.w3.org/2000/svg">
    <path d="M31.4208 12.9773L31.2707 12.4154H17.429V17.5846H25.6992C24.8406 21.1822 20.8562 23.076 17.6016 23.076C15.2336 23.076 12.7374 22.1971 11.0852 20.7844C10.2135 20.0271 9.51964 19.1256 9.04333 18.1314C8.56702 17.1373 8.31762 16.07 8.30941 14.9906C8.30941 12.8133 9.4184 10.6354 11.0321 9.20273C12.6457 7.77012 15.0829 6.96855 17.506 6.96855C20.2811 6.96855 22.27 8.26875 23.0138 8.86172L27.1768 5.20781C25.9555 4.26094 22.6007 1.875 17.3719 1.875C13.3377 1.875 9.46953 3.23848 6.64195 5.7252C3.85156 8.17383 2.40723 11.7146 2.40723 15C2.40723 18.2854 3.77387 21.6492 6.47793 24.1172C9.36727 26.7492 13.4592 28.125 17.6727 28.125C21.5063 28.125 25.1401 26.7996 27.7299 24.3949C30.2759 22.0277 31.5928 18.7523 31.5928 15.3188C31.5928 13.8732 31.4281 13.0148 31.4208 12.9773Z" fill="#EF6D58" stroke="#C9CAD9" stroke-width="1"/> <!-- Cambiado a EF6D58, añadido el borde blanco -->
</svg>
